# This file uses centimeters as units for non-parametric coordinates.

mtllib Spear.mtl
g default
v 12.000000 0.091800 -0.282530
v 12.000000 -0.174613 -0.240334
v 12.000000 -0.297070 -0.000000
v 12.000000 -0.174613 0.240334
v 12.000000 0.091800 0.282530
v 12.000000 0.297069 0.000000
v -7.552688 0.091800 -0.282530
v -7.552688 -0.174613 -0.240334
v -7.552688 -0.297070 0.000000
v -7.552688 -0.174613 0.240334
v -7.552688 0.091800 0.282530
v -7.552688 0.297069 -0.000000
v 12.000000 -0.000000 0.000000
v -8.042255 -0.546516 0.168482
v -8.042255 -0.329612 0.312953
v -8.042255 0.000000 0.400680
v -8.042255 0.329612 0.312953
v -8.042255 0.546516 0.168482
v -9.275312 -0.870217 0.237824
v -9.275312 -0.451523 0.472358
v -9.275312 0.000000 0.525844
v -9.275312 0.451523 0.472358
v -9.275312 0.870217 0.237824
v -10.265544 -0.699281 0.198155
v -10.265544 -0.451523 0.303746
v -10.265544 0.000000 0.374088
v -10.265544 0.451523 0.303746
v -10.265544 0.699281 0.198155
v -11.255775 -0.380301 0.067192
v -12.000000 0.000000 0.000000
v -11.255775 0.383397 0.067192
v -11.255775 -0.495116 0.000000
v -11.255775 0.495115 0.000000
v -11.255775 -0.383397 -0.067192
v -11.255775 0.383397 -0.067192
v -10.265544 -0.699281 -0.198155
v -10.265544 -0.451523 -0.303746
v -10.265544 0.000000 -0.374087
v -10.265544 0.451523 -0.303746
v -10.265544 0.699281 -0.198155
v -9.275312 -0.870217 -0.237823
v -9.275312 -0.451523 -0.472358
v -9.275312 0.000000 -0.525844
v -9.275312 0.451523 -0.472358
v -9.275312 0.870217 -0.237824
v -8.042255 -0.546516 -0.168482
v -8.042255 -0.329612 -0.312953
v -8.042255 0.000000 -0.400680
v -8.042255 0.329612 -0.312953
v -8.042255 0.546516 -0.168482
v -8.042255 0.659224 -0.032632
v -8.042255 0.761771 0.000000
v -8.042255 0.659224 0.032632
v -9.275312 1.005460 -0.085449
v -9.275312 1.123790 0.000000
v -9.275312 1.005460 0.085449
v -10.265544 0.807959 -0.075221
v -10.265544 0.903045 0.000000
v -10.265544 0.807959 0.075221
v -8.042255 -0.659224 -0.032632
v -8.042255 -0.761771 0.000000
v -8.042255 -0.659224 0.032632
v -9.275312 -1.005460 -0.085449
v -9.275312 -1.123790 0.000000
v -9.275312 -1.005460 0.085449
v -10.265544 -0.807959 -0.075221
v -10.265544 -0.903045 0.000000
v -10.265544 -0.807959 0.075221
v -11.255775 0.003999 0.190252
v -11.255775 0.000000 -0.190252
vt 0.284069 0.007074
vt 0.285820 0.018130
vt 0.274095 0.014321
vt 0.274095 0.026649
vt 0.274095 0.001992
vt 0.262370 0.018130
vt 0.264121 0.007074
vt 0.204583 0.001992
vt 0.211787 0.001992
vt 0.211787 0.813442
vt 0.204583 0.813442
vt 0.218990 0.001992
vt 0.218990 0.813442
vt 0.198799 0.833759
vt 0.224774 0.833759
vt 0.044023 0.001992
vt 0.049090 0.001992
vt 0.049090 0.813442
vt 0.044023 0.813442
vt 0.047145 0.833759
vt 0.040118 0.001992
vt 0.040118 0.813442
vt 0.060824 0.833759
vt 0.033466 0.833759
vt 0.047145 0.884932
vt 0.024464 0.833759
vt 0.065883 0.884932
vt 0.028407 0.884932
vt 0.019787 0.833759
vt 0.047145 0.926027
vt 0.069826 0.833759
vt 0.011031 0.884932
vt 0.015531 0.833759
vt 0.065883 0.926027
vt 0.083260 0.884932
vt 0.059474 0.813442
vt 0.028407 0.926027
vt 0.018124 0.926027
vt 0.005418 0.884932
vt 0.047145 0.967122
vt 0.076166 0.926027
vt 0.074503 0.833759
vt 0.013614 0.926027
vt 0.000507 0.884932
vt 0.063056 0.967122
vt 0.080676 0.926027
vt 0.088872 0.884932
vt 0.078759 0.833759
vt 0.031234 0.967122
vt 0.009668 0.926027
vt 0.047145 0.998008
vt 0.026597 0.967122
vt 0.067693 0.967122
vt 0.084622 0.926027
vt 0.093783 0.884932
vt 0.144842 0.001992
vt 0.149449 0.001992
vt 0.149449 0.813442
vt 0.144842 0.813442
vt 0.152999 0.001992
vt 0.152999 0.813442
vt 0.146379 0.833759
vt 0.160059 0.833759
vt 0.132700 0.833759
vt 0.169060 0.833759
vt 0.146379 0.884932
vt 0.173738 0.833759
vt 0.165118 0.884932
vt 0.127641 0.884932
vt 0.177993 0.833759
vt 0.182494 0.884932
vt 0.146379 0.926027
vt 0.123699 0.833759
vt 0.188107 0.884932
vt 0.175400 0.926027
vt 0.165118 0.926027
vt 0.127641 0.926027
vt 0.110265 0.884932
vt 0.134051 0.813442
vt 0.193017 0.884932
vt 0.179910 0.926027
vt 0.146545 0.967122
vt 0.117359 0.926027
vt 0.119021 0.833759
vt 0.183856 0.926027
vt 0.162291 0.967122
vt 0.130597 0.967122
vt 0.112849 0.926027
vt 0.104652 0.884932
vt 0.114765 0.833759
vt 0.166927 0.967122
vt 0.146379 0.998008
vt 0.125832 0.967122
vt 0.108902 0.926027
vt 0.099741 0.884932
vn 0.000000 -0.156435 -0.987688
vn 0.000000 -0.156435 -0.987688
vn -0.000000 -0.156437 -0.987688
vn -0.000000 -0.156437 -0.987688
vn -0.000000 -0.891007 -0.453990
vn -0.000000 -0.891007 -0.453990
vn 0.000000 -0.891006 -0.453991
vn 0.000000 -0.891006 -0.453991
vn 0.000000 -0.891007 0.453990
vn 0.000000 -0.891007 0.453990
vn -0.000000 -0.891006 0.453991
vn -0.000000 -0.891006 0.453991
vn 0.000000 -0.156434 0.987688
vn 0.000000 -0.156434 0.987688
vn -0.000000 -0.156434 0.987688
vn -0.000000 -0.156434 0.987688
vn -0.000000 0.809017 0.587785
vn -0.000000 0.809017 0.587785
vn -0.000000 0.809017 0.587785
vn -0.000000 0.809017 0.587785
vn 0.000000 0.809017 -0.587785
vn 0.000000 0.809017 -0.587785
vn 0.000000 0.809018 -0.587784
vn 0.000000 0.809018 -0.587784
vn 1.000000 0.000001 0.000000
vn 1.000000 0.000000 0.000000
vn 1.000000 0.000000 0.000000
vn 1.000000 0.000001 0.000000
vn 1.000000 0.000000 0.000000
vn 1.000000 0.000000 0.000000
vn 1.000000 0.000000 0.000000
vn 0.494468 -0.481840 0.723417
vn 0.188477 -0.361666 0.913058
vn 0.243517 -0.521001 0.818082
vn 0.494468 0.481841 0.723416
vn 0.243517 0.521001 0.818081
vn 0.183302 0.363882 0.913231
vn 0.026460 -0.309875 0.950409
vn 0.041716 -0.488282 0.871688
vn 0.126454 0.004040 0.991964
vn 0.004095 -0.000000 0.999992
vn 0.026460 0.309875 0.950409
vn 0.041716 0.488282 0.871688
vn -0.180478 -0.409208 0.894414
vn -0.187903 -0.252169 0.949265
vn -0.172866 -0.000192 0.984945
vn -0.187240 0.252192 0.949389
vn -0.180067 0.409221 0.894491
vn -0.241979 -0.304436 0.921284
vn -0.235047 -0.296419 0.925683
vn -0.247678 0.000945 0.968842
vn -0.247662 -0.002150 0.968844
vn -0.232421 0.000727 0.972615
vn -0.241050 0.307727 0.920434
vn -0.318522 -0.478780 0.818116
vn -0.553595 -0.832126 0.033159
vn -0.553822 -0.832468 0.016664
vn -0.553899 0.832584 -0.000001
vn -0.324351 0.487543 0.810616
vn -0.553899 0.832584 -0.000001
vn -0.324350 -0.487541 -0.810617
vn -0.324351 0.487542 -0.810617
vn -0.241077 -0.305112 -0.921297
vn -0.187452 -0.252113 -0.949369
vn -0.180067 -0.409222 -0.894491
vn -0.232093 -0.000000 -0.972694
vn -0.172865 -0.000000 -0.984946
vn -0.241077 0.305112 -0.921297
vn -0.187452 0.252113 -0.949369
vn -0.180067 0.409221 -0.894491
vn 0.026460 -0.309875 -0.950409
vn 0.041716 -0.488282 -0.871688
vn 0.004095 -0.000000 -0.999992
vn 0.026460 0.309875 -0.950409
vn 0.041716 0.488282 -0.871688
vn 0.243517 -0.521001 -0.818082
vn 0.188477 -0.361666 -0.913058
vn 0.126454 0.004041 -0.991964
vn 0.183301 0.363881 -0.913231
vn 0.243517 0.521000 -0.818082
vn 0.494468 -0.481840 -0.723417
vn 0.494469 0.481839 -0.723417
vn 0.521924 0.656475 -0.544643
vn 0.332818 0.725739 -0.602109
vn 0.271092 0.594080 -0.757349
vn 0.688447 0.725287 -0.000004
vn 0.430272 0.902699 -0.000001
vn 0.521925 0.656473 0.544644
vn 0.271091 0.594078 0.757351
vn 0.332818 0.725738 0.602110
vn 0.066005 0.747203 -0.661311
vn 0.050695 0.674109 -0.736890
vn 0.058477 0.998289 -0.000000
vn 0.050695 0.674109 0.736890
vn 0.066005 0.747203 0.661311
vn -0.212776 0.677126 -0.704433
vn -0.239187 0.727466 -0.643104
vn -0.284278 0.958742 -0.000000
vn -0.212776 0.677126 0.704433
vn -0.239187 0.727466 0.643104
vn -0.235685 0.534353 -0.811739
vn -0.402940 0.915227 -0.000000
vn -0.235685 0.534353 0.811739
vn 0.629537 -0.776970 -0.000000
vn 0.271092 -0.594079 -0.757350
vn 0.332818 -0.725738 -0.602110
vn 0.271092 -0.594079 0.757350
vn 0.430272 -0.902699 0.000000
vn 0.332818 -0.725738 0.602110
vn 0.066005 -0.747202 -0.661311
vn 0.050695 -0.674109 -0.736890
vn 0.058477 -0.998289 0.000000
vn 0.050695 -0.674109 0.736890
vn 0.066005 -0.747203 0.661311
vn -0.212776 -0.677126 -0.704433
vn -0.239187 -0.727466 -0.643104
vn -0.284278 -0.958742 -0.000000
vn -0.213241 -0.676786 0.704620
vn -0.240367 -0.727248 0.642911
vn -0.235685 -0.534352 -0.811740
vn -0.404108 -0.914476 0.020768
vn -0.233626 -0.525597 0.818026
vn -0.237801 0.299679 0.923928
vn -0.247673 0.000000 -0.968844
vn -0.236502 0.296945 -0.925143
vn -0.247673 0.000000 -0.968844
vn -0.236502 -0.296945 -0.925144
vn 0.181903 0.252906 0.950237
vn 0.181902 0.252906 -0.950237
vn 0.219300 -0.250937 0.942835
vn 0.219301 -0.250936 -0.942835
vn 0.258591 -0.151116 -0.954094
vn 0.258591 -0.151116 -0.954094
vn 0.258591 -0.151116 -0.954094
vn 0.394652 0.743350 -0.540075
vn 0.394652 0.743350 -0.540075
vn 0.394652 0.743350 -0.540075
vn 0.329877 -0.841132 -0.428578
vn 0.329877 -0.841132 -0.428578
vn 0.329877 -0.841132 -0.428578
vn 0.329877 -0.841131 0.428578
vn 0.329877 -0.841131 0.428578
vn 0.329877 -0.841131 0.428578
vn 0.258592 -0.151113 0.954094
vn 0.258592 -0.151113 0.954094
vn 0.258592 -0.151113 0.954094
vn 0.394652 0.743350 0.540075
vn 0.394652 0.743350 0.540075
vn 0.394652 0.743350 0.540075
s 1
g pCylinder5
usemtl lambert2SG
f 1/16/1 2/17/2 7/19/3
f 7/19/3 2/17/2 8/18/4
s 2
f 2/8/5 3/9/6 8/11/7
f 8/11/7 3/9/6 9/10/8
s 3
f 3/9/9 4/12/10 9/10/11
f 9/10/11 4/12/10 10/13/12
s 4
f 4/56/13 5/57/14 10/59/15
f 10/59/15 5/57/14 11/58/16
s 5
f 5/57/17 6/60/18 11/58/19
f 11/58/19 6/60/18 12/61/20
s 6
f 6/21/21 1/16/22 12/22/23
f 12/22/23 1/16/22 7/19/24
s 7
f 2/1/25 1/2/26 13/3/27
f 3/5/28 2/1/25 13/3/27
f 4/7/29 3/5/28 13/3/27
f 5/6/30 4/7/29 13/3/27
f 6/4/31 5/6/30 13/3/27
f 1/2/26 6/4/31 13/3/27
s 8
f 9/79/32 15/64/33 14/73/34
f 12/61/35 18/65/36 17/63/37
f 15/64/33 20/69/38 14/73/34
f 14/73/34 20/69/38 19/78/39
f 16/62/40 21/66/41 15/64/33
f 15/64/33 21/66/41 20/69/38
f 16/62/40 17/63/37 21/66/41
f 21/66/41 17/63/37 22/68/42
f 17/63/37 18/65/36 22/68/42
f 22/68/42 18/65/36 23/71/43
f 19/78/39 20/69/38 24/83/44
f 24/83/44 20/69/38 25/77/45
f 21/66/41 26/72/46 20/69/38
f 20/69/38 26/72/46 25/77/45
f 21/66/41 22/68/42 26/72/46
f 26/72/46 22/68/42 27/76/47
f 23/71/43 28/75/48 22/68/42
f 22/68/42 28/75/48 27/76/47
f 24/83/44 25/77/45 29/87/49
s 11
f 29/87/50 69/82/51 30/92/52
s 8
f 26/72/46 27/76/47 69/82/53
f 69/82/53 27/76/47 31/86/54
f 27/76/47 28/75/48 31/86/54
s 12
f 29/87/55 30/92/56 32/93/57
s 13
f 30/92/58 31/86/59 33/91/60
s 12
f 32/53/57 30/51/56 34/45/61
s 13
f 30/51/58 33/52/60 35/49/62
s 14
f 34/45/63 37/34/64 36/41/65
f 34/45/63 70/40/66 37/34/64
f 37/34/64 70/40/66 38/30/67
f 35/49/68 39/37/69 70/40/66
f 70/40/66 39/37/69 38/30/67
f 35/49/68 40/38/70 39/37/69
f 37/34/64 42/27/71 36/41/65
f 36/41/65 42/27/71 41/35/72
f 37/34/64 38/30/67 42/27/71
f 42/27/71 38/30/67 43/25/73
f 39/37/69 44/28/74 38/30/67
f 38/30/67 44/28/74 43/25/73
f 39/37/69 40/38/70 44/28/74
f 44/28/74 40/38/70 45/32/75
f 41/35/72 42/27/71 46/31/76
f 46/31/76 42/27/71 47/23/77
f 42/27/71 43/25/73 47/23/77
f 47/23/77 43/25/73 48/20/78
f 44/28/74 49/24/79 43/25/73
f 43/25/73 49/24/79 48/20/78
f 45/32/75 50/26/80 44/28/74
f 44/28/74 50/26/80 49/24/79
f 46/31/76 47/23/77 9/36/81
f 49/24/79 50/26/80 12/22/82
s 16
f 12/22/83 50/26/84 51/29/85
f 12/22/86 51/29/85 52/33/87
f 12/61/88 53/67/89 18/65/90
f 50/26/84 45/32/91 51/29/85
f 51/29/85 45/32/91 54/39/92
f 51/29/85 54/39/92 52/33/87
f 52/33/87 54/39/92 55/44/93
f 53/67/89 52/70/87 56/74/94
f 56/74/94 52/70/87 55/80/93
f 18/65/90 53/67/89 23/71/95
f 23/71/95 53/67/89 56/74/94
f 54/39/92 45/32/91 57/43/96
f 57/43/96 45/32/91 40/38/97
f 55/44/93 54/39/92 58/50/98
f 58/50/98 54/39/92 57/43/96
f 55/80/93 58/85/98 56/74/94
f 56/74/94 58/85/98 59/81/99
f 56/74/94 59/81/99 23/71/95
f 23/71/95 59/81/99 28/75/100
f 57/43/96 40/38/97 35/49/101
f 58/50/98 57/43/96 33/52/102
f 33/52/102 57/43/96 35/49/101
f 58/85/98 33/91/102 59/81/99
f 59/81/99 33/91/102 31/86/103
f 28/75/100 59/81/99 31/86/103
s 19
f 9/36/104 60/42/105 46/31/106
f 9/79/104 62/84/107 61/90/108
f 9/79/104 14/73/109 62/84/107
f 46/31/106 60/42/105 41/35/110
f 41/35/110 60/42/105 63/47/111
f 60/42/105 61/48/108 63/47/111
f 63/47/111 61/48/108 64/55/112
f 62/84/107 65/89/113 61/90/108
f 61/90/108 65/89/113 64/95/112
f 14/73/109 19/78/114 62/84/107
f 62/84/107 19/78/114 65/89/113
f 63/47/111 66/46/115 41/35/110
f 41/35/110 66/46/115 36/41/116
f 64/55/112 67/54/117 63/47/111
f 63/47/111 67/54/117 66/46/115
f 64/95/112 65/89/113 67/94/117
f 67/94/117 65/89/113 68/88/118
f 65/89/113 19/78/114 68/88/118
f 68/88/118 19/78/114 24/83/119
f 36/41/116 66/46/115 34/45/120
f 67/54/117 32/53/121 66/46/115
f 66/46/115 32/53/121 34/45/120
f 67/94/117 68/88/118 32/93/121
f 32/93/121 68/88/118 29/87/122
f 68/88/118 24/83/119 29/87/122
s 8
f 26/72/46 69/82/53 25/77/45
f 25/77/45 69/82/53 29/87/49
s 11
f 69/82/51 31/86/123 30/92/52
s 21
f 30/51/124 35/49/125 70/40/126
f 34/45/127 30/51/124 70/40/126
s 19
f 60/42/105 9/36/104 61/48/108
s 16
f 53/67/89 12/61/86 52/70/87
s 8
f 16/62/40 11/58/128 17/63/37
s 14
f 7/19/129 48/20/78 49/24/79
s 8
f 15/64/33 10/59/130 16/62/40
s 14
f 47/23/77 48/20/78 8/18/131
s off
f 7/19/132 8/18/133 48/20/134
f 12/22/135 7/19/136 49/24/137
f 8/11/138 9/10/139 47/14/140
f 9/10/141 10/13/142 15/15/143
f 10/59/144 11/58/145 16/62/146
f 17/63/147 11/58/148 12/61/149
