# This file uses centimeters as units for non-parametric coordinates.

mtllib Spear.mtl
g default
v 12.000000 0.282530 -0.091800
v 12.000000 0.240334 -0.174613
v 12.000000 0.174613 -0.240334
v 12.000000 0.091800 -0.282530
v 12.000000 0.000000 -0.297070
v 12.000000 -0.091800 -0.282530
v 12.000000 -0.174613 -0.240334
v 12.000000 -0.240334 -0.174613
v 12.000000 -0.282530 -0.091800
v 12.000000 -0.297070 -0.000000
v 12.000000 -0.282530 0.091800
v 12.000000 -0.240334 0.174613
v 12.000000 -0.174613 0.240334
v 12.000000 -0.091800 0.282530
v 12.000000 -0.000000 0.297070
v 12.000000 0.091800 0.282530
v 12.000000 0.174613 0.240334
v 12.000000 0.240334 0.174613
v 12.000000 0.282530 0.091800
v 12.000000 0.297070 -0.000000
v -7.552688 0.282530 -0.091800
v -7.552688 0.240334 -0.174613
v -7.552688 0.174613 -0.240334
v -7.552688 0.091800 -0.282530
v -7.552688 0.000000 -0.297070
v -7.552688 -0.091800 -0.282530
v -7.552688 -0.174613 -0.240334
v -7.552688 -0.240334 -0.174613
v -7.552688 -0.282530 -0.091800
v -7.552688 -0.297070 0.000000
v -7.552688 -0.282530 0.091800
v -7.552688 -0.240334 0.174613
v -7.552688 -0.174613 0.240334
v -7.552688 -0.091800 0.282530
v -7.552688 -0.000000 0.297070
v -7.552688 0.091800 0.282530
v -7.552688 0.174613 0.240334
v -7.552688 0.240334 0.174613
v -7.552688 0.282530 0.091800
v -7.552688 0.297070 0.000000
v 12.000000 0.000000 -0.000000
v -8.042255 -0.546516 0.168482
v -8.042255 -0.329612 0.312953
v -8.042255 0.000000 0.400680
v -8.042255 0.329612 0.312953
v -8.042255 0.546516 0.168482
v -9.275312 -0.870217 0.237824
v -9.275312 -0.451523 0.472358
v -9.275312 0.000000 0.525844
v -9.275312 0.451523 0.472358
v -9.275312 0.870217 0.237824
v -10.265544 -0.699281 0.198155
v -10.265544 -0.451523 0.303746
v -10.265544 0.000000 0.374088
v -10.265544 0.451523 0.303746
v -10.265544 0.699281 0.198155
v -11.255775 -0.380301 0.067192
v -12.000000 0.000000 0.000000
v -11.255775 0.383397 0.067192
v -11.255775 -0.495116 0.000000
v -11.255775 0.495115 0.000000
v -11.255775 -0.383397 -0.067192
v -11.255775 0.383397 -0.067192
v -10.265544 -0.699281 -0.198155
v -10.265544 -0.451523 -0.303746
v -10.265544 0.000000 -0.374088
v -10.265544 0.451523 -0.303746
v -10.265544 0.699281 -0.198155
v -9.275312 -0.870217 -0.237824
v -9.275312 -0.451523 -0.472358
v -9.275312 0.000000 -0.525844
v -9.275312 0.451523 -0.472358
v -9.275312 0.870217 -0.237824
v -8.042255 -0.546516 -0.168482
v -8.042255 -0.329612 -0.312953
v -8.042255 0.000000 -0.400680
v -8.042255 0.329612 -0.312953
v -8.042255 0.546516 -0.168482
v -8.042255 0.659224 -0.032632
v -8.042255 0.761771 0.000000
v -8.042255 0.659224 0.032632
v -9.275312 1.005460 -0.085449
v -9.275312 1.123790 0.000000
v -9.275312 1.005460 0.085449
v -10.265544 0.807959 -0.075221
v -10.265544 0.903045 0.000000
v -10.265544 0.807959 0.075221
v -8.042255 -0.659224 -0.032632
v -8.042255 -0.761771 0.000000
v -8.042255 -0.659224 0.032632
v -9.275312 -1.005460 -0.085449
v -9.275312 -1.123790 0.000000
v -9.275312 -1.005460 0.085449
v -10.265544 -0.807959 -0.075221
v -10.265544 -0.903045 0.000000
v -10.265544 -0.807959 0.075221
v -11.255775 0.003999 0.190252
v -11.255775 0.000000 -0.190252
vt 0.283761 0.024295
vt 0.280324 0.026046
vt 0.276515 0.014321
vt 0.276515 0.026649
vt 0.286489 0.021567
vt 0.272705 0.026046
vt 0.288240 0.018130
vt 0.269268 0.024295
vt 0.288843 0.014321
vt 0.266541 0.021567
vt 0.288240 0.010511
vt 0.264789 0.018130
vt 0.286489 0.007074
vt 0.264186 0.014321
vt 0.283761 0.004347
vt 0.264789 0.010511
vt 0.280324 0.002595
vt 0.266541 0.007074
vt 0.276515 0.001992
vt 0.269268 0.004347
vt 0.272705 0.002595
vt 0.212701 0.001992
vt 0.216138 0.001992
vt 0.212701 0.813442
vt 0.216138 0.813442
vt 0.208892 0.813442
vt 0.218866 0.001992
vt 0.221879 0.833759
vt 0.208892 0.001992
vt 0.218866 0.813442
vt 0.205082 0.813442
vt 0.205082 0.001992
vt 0.195904 0.833759
vt 0.201645 0.813442
vt 0.201645 0.001992
vt 0.198918 0.813442
vt 0.198918 0.001992
vt 0.233684 0.001992
vt 0.237121 0.001992
vt 0.233684 0.813442
vt 0.237121 0.813442
vt 0.230957 0.813442
vt 0.240931 0.001992
vt 0.227943 0.833759
vt 0.230957 0.001992
vt 0.240931 0.813442
vt 0.244740 0.001992
vt 0.244740 0.813442
vt 0.248177 0.001992
vt 0.253918 0.833759
vt 0.248177 0.813442
vt 0.250905 0.001992
vt 0.250905 0.813442
vt 0.039968 0.001992
vt 0.043405 0.001992
vt 0.039968 0.813442
vt 0.043405 0.813442
vt 0.047214 0.001992
vt 0.033535 0.833759
vt 0.047214 0.813442
vt 0.047214 0.833759
vt 0.051024 0.001992
vt 0.047214 0.884932
vt 0.051024 0.813442
vt 0.028476 0.884932
vt 0.060894 0.833759
vt 0.054461 0.001992
vt 0.054461 0.813442
vt 0.024534 0.833759
vt 0.047214 0.926027
vt 0.065953 0.884932
vt 0.011100 0.884932
vt 0.034886 0.813442
vt 0.028476 0.926027
vt 0.069895 0.833759
vt 0.019856 0.833759
vt 0.018194 0.926027
vt 0.047214 0.967122
vt 0.065953 0.926027
vt 0.083329 0.884932
vt 0.059543 0.813442
vt 0.005487 0.884932
vt 0.013684 0.926027
vt 0.015600 0.833759
vt 0.031303 0.967122
vt 0.076235 0.926027
vt 0.074573 0.833759
vt 0.047214 0.998008
vt 0.063126 0.967122
vt 0.080745 0.926027
vt 0.088942 0.884932
vt 0.078828 0.833759
vt 0.009737 0.926027
vt 0.000577 0.884932
vt 0.026667 0.967122
vt 0.067762 0.967122
vt 0.084692 0.926027
vt 0.093852 0.884932
vt 0.139823 0.001992
vt 0.143260 0.001992
vt 0.139823 0.813442
vt 0.143260 0.813442
vt 0.147069 0.001992
vt 0.147069 0.833759
vt 0.147069 0.813442
vt 0.133390 0.833759
vt 0.150879 0.001992
vt 0.147069 0.884932
vt 0.150879 0.813442
vt 0.160748 0.833759
vt 0.128331 0.884932
vt 0.154316 0.001992
vt 0.165808 0.884932
vt 0.147069 0.926027
vt 0.124389 0.833759
vt 0.154316 0.813442
vt 0.169750 0.833759
vt 0.128331 0.926027
vt 0.110955 0.884932
vt 0.134741 0.813442
vt 0.159398 0.813442
vt 0.183184 0.884932
vt 0.165808 0.926027
vt 0.147235 0.967122
vt 0.118049 0.926027
vt 0.119711 0.833759
vt 0.174428 0.833759
vt 0.176090 0.926027
vt 0.131287 0.967122
vt 0.113539 0.926027
vt 0.105342 0.884932
vt 0.115455 0.833759
vt 0.178683 0.833759
vt 0.188797 0.884932
vt 0.180600 0.926027
vt 0.162981 0.967122
vt 0.147069 0.998008
vt 0.126522 0.967122
vt 0.109592 0.926027
vt 0.100431 0.884932
vt 0.193707 0.884932
vt 0.184546 0.926027
vt 0.167617 0.967122
vn 0.000000 0.951057 -0.309016
vn 0.000000 0.809017 -0.587785
vn 0.000000 0.951057 -0.309016
vn 0.000000 0.809017 -0.587785
vn 0.000000 0.587785 -0.809017
vn 0.000000 0.587785 -0.809017
vn 0.000000 0.309017 -0.951056
vn 0.000000 0.309017 -0.951057
vn -0.000000 0.000000 -1.000000
vn -0.000000 -0.000000 -1.000000
vn -0.000000 -0.309017 -0.951057
vn 0.000000 -0.309018 -0.951056
vn 0.000000 -0.587785 -0.809017
vn 0.000000 -0.587786 -0.809017
vn 0.000000 -0.809017 -0.587785
vn 0.000000 -0.809017 -0.587785
vn 0.000000 -0.951056 -0.309017
vn 0.000000 -0.951057 -0.309016
vn 0.000000 -1.000000 -0.000000
vn 0.000000 -1.000000 0.000000
vn 0.000000 -0.951057 0.309017
vn 0.000000 -0.951057 0.309017
vn 0.000000 -0.809017 0.587785
vn 0.000000 -0.809017 0.587785
vn 0.000000 -0.587785 0.809017
vn 0.000000 -0.587785 0.809017
vn 0.000000 -0.309017 0.951057
vn 0.000000 -0.309017 0.951057
vn 0.000000 -0.000000 1.000000
vn 0.000000 0.000000 1.000000
vn 0.000000 0.309017 0.951057
vn 0.000000 0.309017 0.951056
vn 0.000000 0.587785 0.809017
vn 0.000000 0.587785 0.809017
vn 0.000000 0.809017 0.587785
vn 0.000000 0.809017 0.587785
vn 0.000000 0.951057 0.309017
vn 0.000000 0.951057 0.309017
vn 0.000000 1.000000 0.000001
vn 0.000000 1.000000 0.000001
vn 1.000000 0.000000 0.000000
vn 1.000000 0.000000 0.000000
vn 1.000000 -0.000000 0.000000
vn 1.000000 0.000000 0.000000
vn 1.000000 0.000000 0.000000
vn 1.000000 0.000000 0.000000
vn 1.000000 0.000000 0.000000
vn 1.000000 0.000009 0.000000
vn 1.000000 0.000004 0.000000
vn 1.000000 -0.000004 0.000000
vn 1.000000 0.000000 0.000000
vn 1.000000 0.000000 0.000000
vn 1.000000 0.000000 0.000000
vn 1.000000 0.000000 0.000000
vn 1.000000 0.000000 0.000000
vn 1.000000 0.000000 0.000000
vn 1.000000 -0.000009 0.000000
vn 1.000000 -0.000000 0.000000
vn 1.000000 0.000004 0.000000
vn 1.000000 -0.000004 0.000000
vn 1.000000 0.000000 0.000000
vn 0.390946 -0.749961 0.533591
vn 0.190136 -0.369530 0.909558
vn 0.243517 -0.521001 0.818082
vn 0.211543 -0.939849 0.268205
vn 0.390947 0.749959 0.533593
vn 0.243517 0.521001 0.818082
vn 0.185446 0.372193 0.909441
vn 0.026460 -0.309875 0.950409
vn 0.041716 -0.488282 0.871688
vn 0.127305 0.002021 0.991862
vn 0.004095 -0.000000 0.999992
vn 0.026460 0.309875 0.950409
vn 0.041716 0.488282 0.871688
vn -0.180478 -0.409208 0.894414
vn -0.187903 -0.252169 0.949265
vn -0.172866 -0.000192 0.984945
vn -0.187240 0.252192 0.949389
vn -0.180067 0.409221 0.894491
vn -0.241979 -0.304436 0.921284
vn -0.235047 -0.296419 0.925683
vn -0.247678 0.000945 0.968842
vn -0.247662 -0.002150 0.968844
vn -0.232421 0.000727 0.972615
vn -0.241050 0.307727 0.920434
vn -0.318522 -0.478780 0.818116
vn -0.553595 -0.832126 0.033159
vn -0.553822 -0.832468 0.016664
vn -0.553899 0.832584 -0.000001
vn -0.324351 0.487543 0.810616
vn -0.553899 0.832584 -0.000001
vn -0.324350 -0.487541 -0.810617
vn -0.324351 0.487542 -0.810617
vn -0.241077 -0.305112 -0.921297
vn -0.187452 -0.252113 -0.949369
vn -0.180067 -0.409222 -0.894491
vn -0.232093 -0.000000 -0.972694
vn -0.172865 -0.000000 -0.984945
vn -0.241077 0.305112 -0.921297
vn -0.187452 0.252113 -0.949369
vn -0.180067 0.409221 -0.894491
vn 0.026460 -0.309875 -0.950409
vn 0.041716 -0.488282 -0.871688
vn 0.004095 -0.000000 -0.999992
vn 0.026460 0.309875 -0.950409
vn 0.041716 0.488282 -0.871688
vn 0.243517 -0.521001 -0.818082
vn 0.190136 -0.369530 -0.909558
vn 0.127305 0.002021 -0.991862
vn 0.185446 0.372193 -0.909441
vn 0.243517 0.521001 -0.818082
vn 0.390947 -0.749961 -0.533591
vn 0.211542 0.939849 -0.268203
vn 0.390946 0.749962 -0.533590
vn 0.521925 0.656474 -0.544643
vn 0.332818 0.725739 -0.602110
vn 0.271092 0.594079 -0.757350
vn 0.688447 0.725286 0.000000
vn 0.430272 0.902699 -0.000000
vn 0.521925 0.656475 0.544643
vn 0.271092 0.594079 0.757350
vn 0.332818 0.725739 0.602109
vn 0.066005 0.747203 -0.661311
vn 0.050695 0.674109 -0.736890
vn 0.058477 0.998289 0.000000
vn 0.050695 0.674109 0.736890
vn 0.066005 0.747203 0.661311
vn -0.212776 0.677126 -0.704433
vn -0.239187 0.727466 -0.643104
vn -0.284278 0.958742 -0.000000
vn -0.212776 0.677126 0.704433
vn -0.239187 0.727466 0.643104
vn -0.235685 0.534353 -0.811739
vn -0.402940 0.915227 -0.000000
vn -0.235685 0.534353 0.811739
vn 0.629537 -0.776970 0.000000
vn 0.271092 -0.594079 -0.757350
vn 0.332818 -0.725739 -0.602109
vn 0.271092 -0.594079 0.757350
vn 0.430272 -0.902699 0.000000
vn 0.332818 -0.725738 0.602110
vn 0.066005 -0.747203 -0.661311
vn 0.050695 -0.674109 -0.736890
vn 0.058477 -0.998289 0.000000
vn 0.050695 -0.674109 0.736890
vn 0.066005 -0.747203 0.661311
vn -0.212776 -0.677126 -0.704433
vn -0.239187 -0.727466 -0.643104
vn -0.284278 -0.958742 -0.000000
vn -0.213241 -0.676786 0.704620
vn -0.240367 -0.727248 0.642911
vn -0.235685 -0.534352 -0.811740
vn -0.404108 -0.914476 0.020768
vn -0.233626 -0.525597 0.818026
vn -0.237801 0.299679 0.923928
vn -0.247673 0.000000 -0.968844
vn -0.236502 0.296945 -0.925143
vn -0.247673 0.000000 -0.968844
vn -0.236502 -0.296945 -0.925144
vn 0.163259 -0.327229 -0.930735
vn 0.207050 -0.000000 -0.978330
vn 0.207050 0.000000 0.978330
vn 0.210171 0.272837 0.938823
vn 0.298059 0.778462 0.552411
vn 0.211544 0.939849 0.268205
vn 0.290367 0.550385 0.782792
vn 0.298058 0.778462 -0.552411
vn 0.290367 0.550385 -0.782792
vn 0.210171 0.272836 -0.938823
vn 0.163260 -0.327230 0.930735
vn 0.232915 -0.432449 0.871056
vn 0.298059 -0.778461 0.552413
vn 0.232915 -0.432449 -0.871056
vn 0.298059 -0.778461 -0.552412
vn 0.211543 -0.939849 -0.268205
s 1
g pCylinder2
usemtl lambert2SG
f 1/22/1 2/23/2 21/24/3
f 21/24/3 2/23/2 22/25/4
f 2/23/2 3/27/5 22/25/4
f 22/25/4 3/27/5 23/30/6
f 3/54/5 4/55/7 23/56/6
f 23/56/6 4/55/7 24/57/8
f 4/55/7 5/58/9 24/57/8
f 24/57/8 5/58/9 25/60/10
f 5/58/9 6/62/11 25/60/10
f 25/60/10 6/62/11 26/64/12
f 6/62/11 7/67/13 26/64/12
f 26/64/12 7/67/13 27/68/14
f 7/45/13 8/38/15 27/42/14
f 27/42/14 8/38/15 28/40/16
f 8/38/15 9/39/17 28/40/16
f 28/40/16 9/39/17 29/41/18
f 9/39/17 10/43/19 29/41/18
f 29/41/18 10/43/19 30/46/20
f 10/43/19 11/47/21 30/46/20
f 30/46/20 11/47/21 31/48/22
f 11/47/21 12/49/23 31/48/22
f 31/48/22 12/49/23 32/51/24
f 12/49/23 13/52/25 32/51/24
f 32/51/24 13/52/25 33/53/26
f 13/99/25 14/100/27 33/101/26
f 33/101/26 14/100/27 34/102/28
f 14/100/27 15/103/29 34/102/28
f 34/102/28 15/103/29 35/105/30
f 15/103/29 16/107/31 35/105/30
f 35/105/30 16/107/31 36/109/32
f 16/107/31 17/112/33 36/109/32
f 36/109/32 17/112/33 37/116/34
f 17/37/33 18/35/35 37/36/34
f 37/36/34 18/35/35 38/34/36
f 18/35/35 19/32/37 38/34/36
f 38/34/36 19/32/37 39/31/38
f 19/32/37 20/29/39 39/31/38
f 39/31/38 20/29/39 40/26/40
f 20/29/39 1/22/1 40/26/40
f 40/26/40 1/22/1 21/24/3
s 2
f 2/1/41 1/2/42 41/3/43
f 3/5/44 2/1/41 41/3/43
f 4/7/45 3/5/44 41/3/43
f 5/9/46 4/7/45 41/3/43
f 6/11/47 5/9/46 41/3/43
f 7/13/48 6/11/47 41/3/43
f 8/15/49 7/13/48 41/3/43
f 9/17/50 8/15/49 41/3/43
f 10/19/51 9/17/50 41/3/43
f 11/21/52 10/19/51 41/3/43
f 12/20/53 11/21/52 41/3/43
f 13/18/54 12/20/53 41/3/43
f 14/16/55 13/18/54 41/3/43
f 15/14/56 14/16/55 41/3/43
f 16/12/57 15/14/56 41/3/43
f 17/10/58 16/12/57 41/3/43
f 18/8/59 17/10/58 41/3/43
f 19/6/60 18/8/59 41/3/43
f 20/4/61 19/6/60 41/3/43
f 1/2/42 20/4/61 41/3/43
s 3
f 30/120/62 43/106/63 42/115/64
f 31/48/65 43/50/63 30/46/62
f 40/121/66 46/117/67 45/110/68
f 43/106/63 48/111/69 42/115/64
f 42/115/64 48/111/69 47/119/70
f 44/104/71 49/108/72 43/106/63
f 43/106/63 49/108/72 48/111/69
f 44/104/71 45/110/68 49/108/72
f 49/108/72 45/110/68 50/113/73
f 45/110/68 46/117/67 50/113/73
f 50/113/73 46/117/67 51/122/74
f 47/119/70 48/111/69 52/125/75
f 52/125/75 48/111/69 53/118/76
f 49/108/72 54/114/77 48/111/69
f 48/111/69 54/114/77 53/118/76
f 49/108/72 50/113/73 54/114/77
f 54/114/77 50/113/73 55/123/78
f 51/122/74 56/128/79 50/113/73
f 50/113/73 56/128/79 55/123/78
f 52/125/75 53/118/76 57/129/80
s 6
f 57/129/81 97/124/82 58/137/83
s 3
f 54/114/77 55/123/78 97/124/84
f 97/124/84 55/123/78 59/136/85
f 55/123/78 56/128/79 59/136/85
s 7
f 57/129/86 58/137/87 60/138/88
s 8
f 58/137/89 59/136/90 61/143/91
s 7
f 60/96/88 58/88/87 62/89/92
s 8
f 58/88/89 61/95/91 63/85/93
s 9
f 62/89/94 65/79/95 64/86/96
f 62/89/94 98/78/97 65/79/95
f 65/79/95 98/78/97 66/70/98
f 63/85/99 67/74/100 98/78/97
f 98/78/97 67/74/100 66/70/98
f 63/85/99 68/77/101 67/74/100
f 65/79/95 70/71/102 64/86/96
f 64/86/96 70/71/102 69/80/103
f 65/79/95 66/70/98 70/71/102
f 70/71/102 66/70/98 71/63/104
f 67/74/100 72/65/105 66/70/98
f 66/70/98 72/65/105 71/63/104
f 67/74/100 68/77/101 72/65/105
f 72/65/105 68/77/101 73/72/106
f 69/80/103 70/71/102 74/75/107
f 74/75/107 70/71/102 75/66/108
f 70/71/102 71/63/104 75/66/108
f 75/66/108 71/63/104 76/61/109
f 72/65/105 77/59/110 71/63/104
f 71/63/104 77/59/110 76/61/109
f 73/72/106 78/69/111 72/65/105
f 72/65/105 78/69/111 77/59/110
f 74/75/107 75/66/108 30/81/112
f 21/24/113 77/28/110 40/26/114
f 77/59/110 78/69/111 40/73/114
s 12
f 40/73/115 78/69/116 79/76/117
f 40/73/118 79/76/117 80/84/119
f 40/121/120 81/127/121 46/117/122
f 78/69/116 73/72/123 79/76/117
f 79/76/117 73/72/123 82/82/124
f 79/76/117 82/82/124 80/84/119
f 80/84/119 82/82/124 83/94/125
f 81/127/121 80/133/119 84/134/126
f 84/134/126 80/133/119 83/141/125
f 46/117/122 81/127/121 51/122/127
f 51/122/127 81/127/121 84/134/126
f 82/82/124 73/72/123 85/83/128
f 85/83/128 73/72/123 68/77/129
f 83/94/125 82/82/124 86/93/130
f 86/93/130 82/82/124 85/83/128
f 83/141/125 86/142/130 84/134/126
f 84/134/126 86/142/130 87/135/131
f 84/134/126 87/135/131 51/122/127
f 51/122/127 87/135/131 56/128/132
f 85/83/128 68/77/129 63/85/133
f 86/93/130 85/83/128 61/95/134
f 61/95/134 85/83/128 63/85/133
f 86/142/130 61/143/134 87/135/131
f 87/135/131 61/143/134 59/136/135
f 56/128/132 87/135/131 59/136/135
s 15
f 30/81/136 88/87/137 74/75/138
f 30/120/136 90/126/139 89/132/140
f 30/120/136 42/115/141 90/126/139
f 74/75/138 88/87/137 69/80/142
f 69/80/142 88/87/137 91/91/143
f 88/87/137 89/92/140 91/91/143
f 91/91/143 89/92/140 92/98/144
f 90/126/139 93/131/145 89/132/140
f 89/132/140 93/131/145 92/140/144
f 42/115/141 47/119/146 90/126/139
f 90/126/139 47/119/146 93/131/145
f 91/91/143 94/90/147 69/80/142
f 69/80/142 94/90/147 64/86/148
f 92/98/144 95/97/149 91/91/143
f 91/91/143 95/97/149 94/90/147
f 92/140/144 93/131/145 95/139/149
f 95/139/149 93/131/145 96/130/150
f 93/131/145 47/119/146 96/130/150
f 96/130/150 47/119/146 52/125/151
f 64/86/148 94/90/147 62/89/152
f 95/97/149 60/96/153 94/90/147
f 94/90/147 60/96/153 62/89/152
f 95/139/149 96/130/150 60/138/153
f 60/138/153 96/130/150 57/129/154
f 96/130/150 52/125/151 57/129/154
s 3
f 54/114/77 97/124/84 53/118/76
f 53/118/76 97/124/84 57/129/80
s 6
f 97/124/82 59/136/155 58/137/83
s 17
f 58/88/156 63/85/157 98/78/158
f 62/89/159 58/88/156 98/78/158
s 15
f 88/87/137 30/81/136 89/92/140
s 12
f 81/127/121 40/121/118 80/133/119
s 9
f 26/64/160 76/61/109 25/60/161
s 3
f 44/104/71 35/105/162 36/109/163
f 45/33/68 38/34/164 39/31/165
f 45/33/68 39/31/165 40/26/66
f 45/33/68 37/36/166 38/34/164
f 45/110/68 36/109/163 37/116/166
f 44/104/71 36/109/163 45/110/68
s 9
f 22/25/167 77/28/110 21/24/113
f 23/30/168 77/28/110 22/25/167
f 24/57/169 77/59/110 23/56/168
f 24/57/169 76/61/109 77/59/110
f 24/57/169 25/60/161 76/61/109
s 3
f 44/104/71 34/102/170 35/105/162
f 43/106/63 33/101/171 44/104/71
f 44/104/71 33/101/171 34/102/170
f 43/50/63 32/51/172 33/53/171
f 31/48/65 32/51/172 43/50/63
s 9
f 75/66/108 76/61/109 27/68/173
f 27/68/173 76/61/109 26/64/160
f 28/40/174 75/44/108 27/42/173
f 29/41/175 75/44/108 28/40/174
f 29/41/175 30/46/112 75/44/108
