# This file uses centimeters as units for non-parametric coordinates.

mtllib Steering.mtl
g default
v 0.472000 0.149800 0.439500
v 0.459100 0.205100 0.451800
v 0.459100 0.094500 0.427200
v 0.456000 0.132100 0.435000
v 0.449500 0.146600 0.454100
v 0.448700 0.178100 0.445500
v 0.448500 0.153100 0.424800
v 0.440500 0.163800 0.456000
v 0.438800 0.192300 0.464300
v 0.438800 0.100800 0.443900
v 0.437900 0.198400 0.434900
v 0.437900 0.107800 0.414700
v 0.422900 0.249400 0.461700
v 0.422900 0.050200 0.417300
v 0.411400 0.093500 0.589800
v 0.408800 0.229000 0.472500
v 0.408800 0.064200 0.435700
v 0.408200 0.234700 0.443000
v 0.408200 0.071400 0.406600
v 0.404800 0.096800 0.412400
v 0.390100 0.125200 0.610300
v 0.390100 0.061900 0.569300
v 0.383700 0.173700 0.458700
v 0.383200 0.186800 0.446200
v 0.380800 0.136500 0.572700
v 0.380800 0.077800 0.539900
v 0.380600 0.178900 0.433200
v 0.370500 0.274000 0.467200
v 0.370500 0.025600 0.411800
v 0.365500 0.249300 0.477000
v 0.365500 0.043800 0.431200
v 0.365300 0.254900 0.447500
v 0.365300 0.051300 0.402100
v 0.361300 0.034600 0.413700
v 0.356100 0.134100 0.559400
v 0.356100 0.078800 0.532700
v 0.352900 0.170300 0.459800
v 0.352900 0.125300 0.451600
v 0.338400 0.174800 0.458700
v 0.338400 0.187900 0.446200
v 0.338400 0.180000 0.433300
v 0.338400 0.034600 0.413700
v 0.338400 0.096800 0.412400
v 0.317700 0.254900 0.447500
v 0.317700 0.051300 0.402100
v 0.317500 0.249300 0.477000
v 0.317500 0.043800 0.431200
v 0.315500 0.034600 0.413700
v 0.312500 0.274000 0.467200
v 0.312500 0.025600 0.411800
v 0.309200 0.170300 0.459800
v 0.309200 0.125300 0.451600
v 0.306000 0.134100 0.559400
v 0.306000 0.078800 0.532700
v 0.296300 0.178900 0.433200
v 0.293600 0.186800 0.446200
v 0.293100 0.173700 0.458700
v 0.281400 0.136500 0.572700
v 0.281400 0.077800 0.539900
v 0.274800 0.234700 0.443000
v 0.274800 0.071400 0.406600
v 0.274200 0.229000 0.472500
v 0.274200 0.064200 0.435700
v 0.272100 0.125200 0.610300
v 0.272100 0.061900 0.569300
v 0.272100 0.096800 0.412400
v 0.260100 0.249400 0.461700
v 0.260100 0.050200 0.417300
v 0.245100 0.198400 0.434900
v 0.245100 0.107800 0.414700
v 0.244200 0.192300 0.464300
v 0.244200 0.100800 0.443900
v 0.236400 0.163800 0.456000
v 0.234500 0.153100 0.424800
v 0.233500 0.146600 0.454100
v 0.228100 0.178100 0.445500
v 0.223900 0.205100 0.451800
v 0.223900 0.094500 0.427200
v 0.220800 0.132100 0.435000
v 0.211000 0.149800 0.439500
vt 0.262100 0.171700
vt 0.275400 0.167700
vt 0.275400 0.171700
vt 0.262100 0.167700
vt 0.262100 0.164800
vt 0.275400 0.164800
vt 0.288600 0.155800
vt 0.285300 0.139900
vt 0.288600 0.139900
vt 0.285300 0.155800
vt 0.282800 0.139900
vt 0.282800 0.155800
vt 0.262100 0.139900
vt 0.254600 0.155800
vt 0.254600 0.139900
vt 0.262100 0.155800
vt 0.275400 0.155800
vt 0.275400 0.139900
vt 0.252100 0.155800
vt 0.252100 0.139900
vt 0.248800 0.147800
vt 0.248800 0.139900
vt 0.248800 0.155800
vt 0.226500 0.898900
vt 0.226700 0.893400
vt 0.201000 0.903200
vt 0.246400 0.898400
vt 0.246400 0.892900
vt 0.226100 0.893800
vt 0.227300 0.897500
vt 0.197100 0.897500
vt 0.193900 0.917500
vt 0.197300 0.897200
vt 0.227900 0.897200
vt 0.246400 0.896700
vt 0.218000 0.933100
vt 0.238500 0.959800
vt 0.246400 0.933200
vt 0.218600 0.933200
vt 0.194200 0.917500
vt 0.246400 0.960300
vt 0.239000 0.960300
vt 0.200800 0.903400
vt 0.225900 0.899100
vt 0.255200 0.152400
vt 0.257500 0.153700
vt 0.260900 0.149600
vt 0.253700 0.158500
vt 0.256300 0.158700
vt 0.255200 0.164600
vt 0.257500 0.163800
vt 0.259300 0.169500
vt 0.260900 0.167900
vt 0.265300 0.172200
vt 0.265900 0.170100
vt 0.271900 0.172200
vt 0.271300 0.170100
vt 0.277900 0.169500
vt 0.276300 0.167900
vt 0.282000 0.164600
vt 0.279700 0.163800
vt 0.283500 0.158500
vt 0.280900 0.158700
vt 0.282000 0.152400
vt 0.279700 0.153700
vt 0.277900 0.147500
vt 0.276300 0.149600
vt 0.271900 0.144700
vt 0.271300 0.147400
vt 0.265300 0.144700
vt 0.265900 0.147400
vt 0.259300 0.147500
vt 0.256400 0.158200
vt 0.257600 0.153200
vt 0.261000 0.149200
vt 0.265900 0.146900
vt 0.257600 0.163200
vt 0.261000 0.167200
vt 0.265900 0.169500
vt 0.271300 0.169500
vt 0.276200 0.167200
vt 0.279600 0.163200
vt 0.280800 0.158200
vt 0.279600 0.153200
vt 0.276200 0.149200
vt 0.271300 0.146900
vn 0.000000 0.957686 0.287815
vn 0.000000 0.957686 0.287815
vn 0.000000 0.957686 0.287815
vn 0.000000 0.957755 0.287586
vn 0.000000 0.981669 0.190594
vn 0.000000 0.981669 0.190594
vn 0.000000 0.981669 0.190594
vn 0.000000 0.999857 0.016899
vn 0.000000 0.981669 0.190594
vn 0.000000 0.999857 0.016899
vn 0.000000 0.981669 0.190594
vn 0.000000 0.999857 0.016899
vn -0.969258 0.124895 -0.211991
vn -0.695389 0.356294 -0.624090
vn -0.963238 0.146006 -0.225509
vn -0.969258 0.124895 -0.211991
vn -0.809678 0.269793 -0.521186
vn -0.695389 0.356294 -0.624090
vn -0.809678 0.269793 -0.521186
vn -0.797919 0.285407 -0.530913
vn -0.695389 0.356294 -0.624090
vn -0.809678 0.269793 -0.521186
vn -0.787116 0.266605 -0.556211
vn -0.797919 0.285407 -0.530913
vn 0.999493 0.008500 -0.030700
vn 0.787116 0.266605 -0.556211
vn 0.797919 0.285407 -0.530913
vn 0.999493 0.008500 -0.030700
vn 0.999523 0.005500 -0.030401
vn 0.787116 0.266605 -0.556211
vn 0.000000 0.939668 0.342088
vn 0.000000 0.999857 0.016899
vn 0.000000 0.939668 0.342088
vn 0.000000 0.939668 0.342088
vn 0.000000 0.999857 0.016899
vn 0.000000 0.999857 0.016899
vn -0.797919 0.285407 -0.530913
vn -0.787116 0.266605 -0.556211
vn -0.999493 0.008500 -0.030700
vn -0.787116 0.266605 -0.556211
vn -0.999523 0.005500 -0.030401
vn -0.999493 0.008500 -0.030700
vn 0.787116 0.266605 -0.556211
vn 0.676992 0.467194 -0.568693
vn 0.797919 0.285407 -0.530913
vn 0.676992 0.467194 -0.568693
vn 0.597084 0.280392 -0.751579
vn 0.797919 0.285407 -0.530913
vn 0.676992 0.467194 -0.568693
vn 0.870907 0.279102 -0.404503
vn 0.597084 0.280392 -0.751579
vn 0.870907 0.279102 -0.404503
vn 0.853026 -0.296709 -0.429313
vn 0.597084 0.280392 -0.751579
vn 0.676992 0.467194 -0.568693
vn 0.819609 0.572106 -0.030600
vn 0.870907 0.279102 -0.404503
vn -0.088700 0.688802 0.719502
vn -0.092104 0.987344 0.129106
vn -0.093500 0.579902 0.809303
vn -0.088700 0.688802 0.719502
vn 0.000000 0.689800 0.724000
vn -0.092104 0.987344 0.129106
vn 0.000000 0.689800 0.724000
vn 0.000000 0.991697 0.128600
vn -0.092104 0.987344 0.129106
vn 0.000000 0.689800 0.724000
vn 0.092097 0.987372 0.128896
vn 0.000000 0.991697 0.128600
vn 0.092097 0.987372 0.128896
vn 0.075896 0.583367 -0.808655
vn 0.000000 0.991697 0.128600
vn 0.092097 0.987372 0.128896
vn 0.274297 0.842190 -0.464195
vn 0.075896 0.583367 -0.808655
vn 0.274297 0.842190 -0.464195
vn 0.193107 0.275409 -0.941732
vn 0.075896 0.583367 -0.808655
vn -0.093500 0.579902 0.809303
vn -0.092104 0.987344 0.129106
vn -0.274212 0.842038 -0.464521
vn -0.092104 0.987344 0.129106
vn -0.075897 0.583480 -0.808573
vn -0.274212 0.842038 -0.464521
vn -0.092104 0.987344 0.129106
vn 0.000000 0.991697 0.128600
vn -0.075897 0.583480 -0.808573
vn 0.000000 0.991697 0.128600
vn -0.000000 0.597421 -0.801928
vn -0.075897 0.583480 -0.808573
vn 0.000000 0.991697 0.128600
vn 0.075896 0.583367 -0.808655
vn -0.000000 0.597421 -0.801928
vn 0.075896 0.583367 -0.808655
vn 0.073298 0.191895 -0.978675
vn -0.000000 0.597421 -0.801928
vn 0.075896 0.583367 -0.808655
vn 0.193107 0.275409 -0.941732
vn 0.073298 0.191895 -0.978675
vn 0.000000 -0.020700 -0.999786
vn 0.000000 0.112495 -0.993652
vn 0.073298 0.191895 -0.978675
vn 0.000000 0.112495 -0.993652
vn -0.000000 0.597421 -0.801928
vn 0.073298 0.191895 -0.978675
vn 0.000000 0.112495 -0.993652
vn -0.073298 0.191895 -0.978675
vn -0.000000 0.597421 -0.801928
vn -0.073298 0.191895 -0.978675
vn -0.075897 0.583480 -0.808573
vn -0.000000 0.597421 -0.801928
vn -0.073298 0.191895 -0.978675
vn -0.193107 0.275409 -0.941732
vn -0.075897 0.583480 -0.808573
vn -0.193107 0.275409 -0.941732
vn -0.274212 0.842038 -0.464521
vn -0.075897 0.583480 -0.808573
vn 0.000000 -0.020700 -0.999786
vn 0.000000 0.112495 -0.993652
vn 0.000000 -0.020700 -0.999786
vn 0.000000 -0.020700 -0.999786
vn 0.000000 -0.020700 -0.999786
vn 0.000000 0.112495 -0.993652
vn 0.000000 -0.020700 -0.999786
vn -0.073298 0.191895 -0.978675
vn 0.000000 0.112495 -0.993652
vn 0.274297 0.842190 -0.464195
vn 0.092097 0.987372 0.128896
vn 0.093594 0.579963 0.809248
vn 0.092097 0.987372 0.128896
vn 0.088700 0.688802 0.719502
vn 0.093594 0.579963 0.809248
vn 0.092097 0.987372 0.128896
vn 0.000000 0.689800 0.724000
vn 0.088700 0.688802 0.719502
vn -0.498105 0.052800 0.865508
vn -0.498105 0.052800 0.865508
vn -0.344686 0.240590 0.907363
vn -0.498105 0.052800 0.865508
vn -0.552893 -0.181298 0.813290
vn -0.498105 0.052800 0.865508
vn -0.552893 -0.181298 0.813290
vn -0.552893 -0.181298 0.813290
vn -0.498105 0.052800 0.865508
vn -0.552893 -0.181298 0.813290
vn -0.498096 -0.415496 0.761094
vn -0.552893 -0.181298 0.813290
vn -0.498096 -0.415496 0.761094
vn -0.498096 -0.415496 0.761094
vn -0.552893 -0.181298 0.813290
vn -0.498096 -0.415496 0.761094
vn -0.344714 -0.603225 0.719230
vn -0.498096 -0.415496 0.761094
vn -0.344714 -0.603225 0.719230
vn -0.344714 -0.603225 0.719230
vn -0.498096 -0.415496 0.761094
vn -0.344714 -0.603225 0.719230
vn -0.123002 -0.707414 0.696014
vn -0.344714 -0.603225 0.719230
vn -0.123002 -0.707414 0.696014
vn -0.123002 -0.707414 0.696014
vn -0.344714 -0.603225 0.719230
vn -0.123002 -0.707414 0.696014
vn 0.123002 -0.707414 0.696014
vn -0.123002 -0.707414 0.696014
vn 0.123002 -0.707414 0.696014
vn 0.123002 -0.707414 0.696014
vn -0.123002 -0.707414 0.696014
vn 0.123002 -0.707414 0.696014
vn 0.344714 -0.603225 0.719230
vn 0.123002 -0.707414 0.696014
vn 0.344714 -0.603225 0.719230
vn 0.344714 -0.603225 0.719230
vn 0.123002 -0.707414 0.696014
vn 0.344714 -0.603225 0.719230
vn 0.498096 -0.415496 0.761094
vn 0.344714 -0.603225 0.719230
vn 0.498096 -0.415496 0.761094
vn 0.498096 -0.415496 0.761094
vn 0.344714 -0.603225 0.719230
vn 0.498096 -0.415496 0.761094
vn 0.552893 -0.181298 0.813290
vn 0.498096 -0.415496 0.761094
vn 0.552893 -0.181298 0.813290
vn 0.552893 -0.181298 0.813290
vn 0.498096 -0.415496 0.761094
vn 0.552893 -0.181298 0.813290
vn 0.498105 0.052800 0.865508
vn 0.552893 -0.181298 0.813290
vn 0.498105 0.052800 0.865508
vn 0.498105 0.052800 0.865508
vn 0.552893 -0.181298 0.813290
vn 0.498105 0.052800 0.865508
vn 0.344686 0.240590 0.907363
vn 0.498105 0.052800 0.865508
vn 0.344686 0.240590 0.907363
vn 0.344686 0.240590 0.907363
vn 0.498105 0.052800 0.865508
vn 0.344686 0.240590 0.907363
vn 0.122998 0.344794 0.930585
vn 0.344686 0.240590 0.907363
vn 0.122998 0.344794 0.930585
vn 0.122998 0.344794 0.930585
vn 0.344686 0.240590 0.907363
vn 0.122998 0.344794 0.930585
vn -0.122998 0.344794 0.930585
vn 0.122998 0.344794 0.930585
vn -0.122998 0.344794 0.930585
vn -0.122998 0.344794 0.930585
vn 0.122998 0.344794 0.930585
vn -0.122998 0.344794 0.930585
vn -0.344686 0.240590 0.907363
vn -0.122998 0.344794 0.930585
vn -0.344686 0.240590 0.907363
vn -0.344686 0.240590 0.907363
vn -0.122998 0.344794 0.930585
vn -0.344686 0.240590 0.907363
vn -0.498105 0.052800 0.865508
vn -0.344686 0.240590 0.907363
vn -0.538582 0.183394 -0.822372
vn -0.538582 0.183394 -0.822372
vn -0.485302 -0.044700 -0.873203
vn -0.538582 0.183394 -0.822372
vn -0.485305 0.411405 -0.771508
vn -0.538582 0.183394 -0.822372
vn -0.485305 0.411405 -0.771508
vn -0.485305 0.411405 -0.771508
vn -0.538582 0.183394 -0.822372
vn -0.485305 0.411405 -0.771508
vn -0.335801 0.594401 -0.730702
vn -0.485305 0.411405 -0.771508
vn -0.335801 0.594401 -0.730702
vn -0.335801 0.594401 -0.730702
vn -0.485305 0.411405 -0.771508
vn -0.335801 0.594401 -0.730702
vn -0.119897 0.695880 -0.708079
vn -0.335801 0.594401 -0.730702
vn -0.485302 -0.044700 -0.873203
vn -0.485302 -0.044700 -0.873203
vn -0.538582 0.183394 -0.822372
vn -0.485302 -0.044700 -0.873203
vn -0.335807 -0.227605 -0.914019
vn -0.485302 -0.044700 -0.873203
vn -0.335807 -0.227605 -0.914019
vn -0.335807 -0.227605 -0.914019
vn -0.485302 -0.044700 -0.873203
vn -0.335807 -0.227605 -0.914019
vn -0.119803 -0.329209 -0.936626
vn -0.335807 -0.227605 -0.914019
vn -0.119803 -0.329209 -0.936626
vn -0.119803 -0.329209 -0.936626
vn -0.335807 -0.227605 -0.914019
vn -0.119803 -0.329209 -0.936626
vn 0.119902 -0.329205 -0.936615
vn -0.119803 -0.329209 -0.936626
vn 0.119902 -0.329205 -0.936615
vn 0.119803 -0.329209 -0.936626
vn -0.119803 -0.329209 -0.936626
vn 0.119902 -0.329205 -0.936615
vn 0.335807 -0.227605 -0.914019
vn 0.119803 -0.329209 -0.936626
vn 0.335807 -0.227605 -0.914019
vn 0.335807 -0.227605 -0.914019
vn 0.119803 -0.329209 -0.936626
vn 0.335807 -0.227605 -0.914019
vn 0.485302 -0.044700 -0.873203
vn 0.335807 -0.227605 -0.914019
vn 0.485302 -0.044700 -0.873203
vn 0.485302 -0.044700 -0.873203
vn 0.335807 -0.227605 -0.914019
vn 0.485302 -0.044700 -0.873203
vn 0.538582 0.183394 -0.822372
vn 0.485302 -0.044700 -0.873203
vn 0.538582 0.183394 -0.822372
vn 0.538582 0.183394 -0.822372
vn 0.485302 -0.044700 -0.873203
vn 0.538582 0.183394 -0.822372
vn 0.485305 0.411405 -0.771508
vn 0.538582 0.183394 -0.822372
vn 0.485305 0.411405 -0.771508
vn 0.485305 0.411405 -0.771508
vn 0.538582 0.183394 -0.822372
vn 0.485305 0.411405 -0.771508
vn 0.335801 0.594401 -0.730702
vn 0.485305 0.411405 -0.771508
vn 0.335801 0.594401 -0.730702
vn 0.335801 0.594401 -0.730702
vn 0.485305 0.411405 -0.771508
vn 0.335801 0.594401 -0.730702
vn 0.119897 0.695880 -0.708079
vn 0.335801 0.594401 -0.730702
vn 0.119897 0.695880 -0.708079
vn 0.119897 0.695880 -0.708079
vn 0.335801 0.594401 -0.730702
vn 0.119897 0.695880 -0.708079
vn -0.119897 0.695880 -0.708079
vn 0.119897 0.695880 -0.708079
vn -0.119897 0.695880 -0.708079
vn -0.119897 0.695880 -0.708079
vn 0.119897 0.695880 -0.708079
vn -0.119897 0.695880 -0.708079
vn -0.335801 0.594401 -0.730702
vn -0.119897 0.695880 -0.708079
s off
g carrgt:StWH02
usemtl blinn1SG
f 21/1/1 58/2/2 64/3/3
f 21/1/4 25/4/5 58/2/6
f 25/4/7 35/5/8 58/2/9
f 53/6/10 58/2/11 35/5/12
f 64/7/13 59/8/14 65/9/15
f 64/7/16 58/10/17 59/8/18
f 58/10/19 54/11/20 59/8/21
f 58/10/22 53/12/23 54/11/24
f 38/13/25 35/14/26 36/15/27
f 38/13/28 37/16/29 35/14/30
f 51/17/31 35/5/32 37/16/33
f 51/17/34 53/6/35 35/5/36
f 54/11/37 53/12/38 52/18/39
f 53/12/40 51/17/41 52/18/42
f 35/14/43 25/19/44 36/15/45
f 25/19/46 26/20/47 36/15/48
f 25/19/49 15/21/50 26/20/51
f 15/21/52 22/22/53 26/20/54
f 25/19/55 21/23/56 15/21/57
f 57/24/58 56/25/59 73/26/60
f 57/24/61 39/27/62 56/25/63
f 39/27/64 40/28/65 56/25/66
f 39/27/67 24/29/68 40/28/69
f 24/29/70 27/30/71 40/28/72
f 24/29/73 6/31/74 27/30/75
f 6/31/76 4/32/77 27/30/78
f 73/26/79 56/25/80 76/33/81
f 56/25/82 55/34/83 76/33/84
f 56/25/85 40/28/86 55/34/87
f 40/28/88 41/35/89 55/34/90
f 40/28/91 27/30/92 41/35/93
f 27/30/94 20/36/95 41/35/96
f 27/30/97 4/32/98 20/36/99
f 34/37/100 43/38/101 20/36/102
f 43/38/103 41/35/104 20/36/105
f 43/38/106 66/39/107 41/35/108
f 66/39/109 55/34/110 41/35/111
f 66/39/112 79/40/113 55/34/114
f 79/40/115 76/33/116 55/34/117
f 42/41/118 43/38/119 34/37/120
f 42/41/121 48/42/122 43/38/123
f 48/42/124 66/39/125 43/38/126
f 6/31/127 24/29/128 8/43/129
f 24/29/130 23/44/131 8/43/132
f 24/29/133 39/27/134 23/44/135
f 77/45/136 71/46/137 62/47/138
f 77/45/139 80/48/140 71/46/141
f 80/48/142 75/49/143 71/46/144
f 80/48/145 78/50/146 75/49/147
f 78/50/148 72/51/149 75/49/150
f 78/50/151 68/52/152 72/51/153
f 68/52/154 63/53/155 72/51/156
f 68/52/157 50/54/158 63/53/159
f 50/54/160 47/55/161 63/53/162
f 50/54/163 29/56/164 47/55/165
f 29/56/166 31/57/167 47/55/168
f 29/56/169 14/58/170 31/57/171
f 14/58/172 17/59/173 31/57/174
f 14/58/175 3/60/176 17/59/177
f 3/60/178 10/61/179 17/59/180
f 3/60/181 1/62/182 10/61/183
f 1/62/184 5/63/185 10/61/186
f 1/62/187 2/64/188 5/63/189
f 2/64/190 9/65/191 5/63/192
f 2/64/193 13/66/194 9/65/195
f 13/66/196 16/67/197 9/65/198
f 13/66/199 28/68/200 16/67/201
f 28/68/202 30/69/203 16/67/204
f 28/68/205 49/70/206 30/69/207
f 49/70/208 46/71/209 30/69/210
f 49/70/211 67/72/212 46/71/213
f 67/72/214 62/47/215 46/71/216
f 67/72/217 77/45/218 62/47/219
f 80/48/220 74/73/221 78/50/222
f 80/48/223 77/45/224 74/73/225
f 77/45/226 69/74/227 74/73/228
f 77/45/229 67/72/230 69/74/231
f 67/72/232 60/75/233 69/74/234
f 67/72/235 44/76/236 60/75/237
f 70/77/238 78/50/239 74/73/240
f 70/77/241 61/78/242 78/50/243
f 61/78/244 68/52/245 78/50/246
f 61/78/247 45/79/248 68/52/249
f 45/79/250 50/54/251 68/52/252
f 45/79/253 33/80/254 50/54/255
f 33/80/256 29/56/257 50/54/258
f 33/80/259 19/81/260 29/56/261
f 19/81/262 14/58/263 29/56/264
f 19/81/265 12/82/266 14/58/267
f 12/82/268 3/60/269 14/58/270
f 12/82/271 7/83/272 3/60/273
f 7/83/274 1/62/275 3/60/276
f 7/83/277 11/84/278 1/62/279
f 11/84/280 2/64/281 1/62/282
f 11/84/283 13/66/284 2/64/285
f 18/85/286 13/66/287 11/84/288
f 18/85/289 32/86/290 13/66/291
f 32/86/292 28/68/293 13/66/294
f 32/86/295 44/76/296 28/68/297
f 44/76/298 49/70/299 28/68/300
f 44/76/301 67/72/302 49/70/303
